<svg width="117" height="117" fill="none" xmlns="http://www.w3.org/2000/svg"><g filter="url(#prefix__filter0_i_105_128)"><path d="M35.734 23.465a13 13 0 0110.16-4.775l12.796.09 12.795.151a13 13 0 0110.068 4.966l7.907 10.06 7.86 10.099a13.001 13.001 0 012.395 10.967l-2.936 12.455-2.994 12.441a13 13 0 01-7.081 8.71L75.135 94.1l-11.594 5.416a13 13 0 01-11.225-.106l-11.49-5.633-11.463-5.689a13 13 0 01-6.915-8.841l-2.76-12.496-2.7-12.508a13 13 0 012.601-10.92l8.05-9.949 8.095-9.91z" fill="url(#prefix__paint0_linear_105_128)" fill-opacity=".2"/></g><path d="M58.701 17.78h-.004L45.9 17.69a14 14 0 00-10.94 5.142l-8.096 9.91-.003.004-8.05 9.948a14 14 0 00-2.8 11.76l2.7 12.508v.005l2.76 12.495a14 14 0 007.448 9.522l11.463 5.688.004.002 11.49 5.634a14.002 14.002 0 0012.088.114l11.594-5.416.005-.002 11.568-5.47a14 14 0 007.626-9.38l2.995-12.442v-.005l2.936-12.455a14 14 0 00-2.579-11.81l-7.86-10.099-.002-.004-7.908-10.06a14 14 0 00-10.842-5.348l-12.796-.151z" stroke="url(#prefix__paint1_linear_105_128)" stroke-width="2"/><path d="M65.516 60.562l.916-5.972h-5.73v-3.876c0-1.633.8-3.227 3.367-3.227h2.605v-5.084S64.31 42 62.049 42c-4.719 0-7.803 2.86-7.803 8.039v4.551H49v5.972h5.246V75h6.456V60.562h4.814z" fill="url(#prefix__paint2_linear_105_128)"/><defs><linearGradient id="prefix__paint0_linear_105_128" x1="39.671" y1="18.646" x2="76.963" y2="97.988" gradientUnits="userSpaceOnUse"><stop stop-color="#1B77F2" stop-opacity=".7"/><stop offset="1" stop-color="#62E3FF" stop-opacity=".24"/><stop offset="1" stop-color="#62E3FF" stop-opacity=".73"/></linearGradient><linearGradient id="prefix__paint1_linear_105_128" x1="73.916" y1="19.252" x2="45.157" y2="99.019" gradientUnits="userSpaceOnUse"><stop stop-color="#1B77F2"/><stop offset="1" stop-color="#62E3FF"/></linearGradient><linearGradient id="prefix__paint2_linear_105_128" x1="57.837" y1="42" x2="57.837" y2="75" gradientUnits="userSpaceOnUse"><stop stop-color="#1B77F2"/><stop offset="1" stop-color="#62E3FF"/></linearGradient><filter id="prefix__filter0_i_105_128" x="14.695" y="8.689" width="87.366" height="94.048" filterUnits="userSpaceOnUse" color-interpolation-filters="sRGB"><feFlood flood-opacity="0" result="BackgroundImageFix"/><feBlend in="SourceGraphic" in2="BackgroundImageFix" result="shape"/><feColorMatrix in="SourceAlpha" values="0 0 0 0 0 0 0 0 0 0 0 0 0 0 0 0 0 0 127 0" result="hardAlpha"/><feOffset dy="-8"/><feGaussianBlur stdDeviation="6"/><feComposite in2="hardAlpha" operator="arithmetic" k2="-1" k3="1"/><feColorMatrix values="0 0 0 0 0.0414556 0 0 0 0 0.509132 0 0 0 0 0.796115 0 0 0 0.35 0"/><feBlend in2="shape" result="effect1_innerShadow_105_128"/></filter></defs></svg>
