<svg width="117" height="117" fill="none" xmlns="http://www.w3.org/2000/svg"><g filter="url(#prefix__filter0_i_105_131)"><path d="M35.734 23.465a13 13 0 0110.16-4.775l12.796.09 12.795.151a13 13 0 0110.068 4.966l7.907 10.06 7.86 10.099a13.001 13.001 0 012.395 10.967l-2.936 12.455-2.994 12.441a13 13 0 01-7.081 8.71L75.135 94.1l-11.594 5.416a13 13 0 01-11.225-.106l-11.49-5.633-11.463-5.689a13 13 0 01-6.915-8.841l-2.76-12.496-2.7-12.508a13 13 0 012.601-10.92l8.05-9.949 8.095-9.91z" fill="url(#prefix__paint0_linear_105_131)" fill-opacity=".2"/></g><path d="M58.701 17.78h-.004L45.9 17.69a14 14 0 00-10.94 5.142l-8.096 9.91-.003.004-8.05 9.948a14 14 0 00-2.8 11.76l2.7 12.508v.005l2.76 12.495a14 14 0 007.448 9.522l11.463 5.688.004.002 11.49 5.634a14.002 14.002 0 0012.088.114l11.594-5.416.005-.002 11.568-5.47a14 14 0 007.626-9.38l2.995-12.442v-.005l2.936-12.455a14 14 0 00-2.579-11.81l-7.86-10.099-.002-.004-7.908-10.06a14 14 0 00-10.842-5.348l-12.796-.151z" stroke="url(#prefix__paint1_linear_105_131)" stroke-width="2"/><path fill-rule="evenodd" clip-rule="evenodd" d="M72.176 44.767a8.424 8.424 0 011.9 2.916c.488 1.298.749 2.67.77 4.056.103 1.751.103 2.319.103 6.789s-.024 5.027-.103 6.788a12.046 12.046 0 01-.766 4 8.44 8.44 0 01-4.818 4.817c-1.28.48-2.633.739-4 .766-1.747.101-2.32.101-6.788.101s-5.026-.024-6.788-.1a12.044 12.044 0 01-3.998-.824 8.435 8.435 0 01-4.819-4.816 12.066 12.066 0 01-.767-4.001C42 63.508 42 62.939 42 58.47c0-4.47.024-5.028.102-6.788.027-1.367.286-2.72.767-4a8.417 8.417 0 014.818-4.816 11.99 11.99 0 013.996-.768C53.43 42 54.003 42 58.47 42s5.026.022 6.788.099c1.367.028 2.72.288 4 .768a8.423 8.423 0 012.917 1.9zm-.898 23.445c.365-.99.558-2.034.57-3.089v.002h.02c.078-1.749.078-2.228.078-6.685 0-4.46-.02-4.948-.099-6.688a9.295 9.295 0 00-.569-3.054 5.474 5.474 0 00-3.132-3.132 9.079 9.079 0 00-3.055-.569c-1.77-.1-2.227-.1-6.686-.1s-4.948.021-6.688.1a9.167 9.167 0 00-3.053.569 5.464 5.464 0 00-3.145 3.132 9.219 9.219 0 00-.57 3.087c-.096 1.773-.096 2.229-.096 6.688 0 4.457.018 4.947.096 6.685a9.294 9.294 0 00.57 3.054 5.46 5.46 0 003.145 3.13c.977.364 2.01.557 3.053.57 1.772.1 2.227.1 6.688.1 4.457 0 4.947-.02 6.686-.1a9.12 9.12 0 003.055-.57 5.465 5.465 0 003.132-3.13zM67.257 51.66a1.972 1.972 0 100-3.945 1.972 1.972 0 000 3.945zm-8.795-1.662a8.46 8.46 0 100 16.921 8.46 8.46 0 000-16.92zm0 13.955a5.496 5.496 0 110-10.992 5.496 5.496 0 010 10.992z" fill="url(#prefix__paint2_linear_105_131)"/><defs><linearGradient id="prefix__paint0_linear_105_131" x1="39.671" y1="18.646" x2="76.963" y2="97.988" gradientUnits="userSpaceOnUse"><stop stop-color="#4967D5" stop-opacity=".7"/><stop offset=".497" stop-color="#DB2E7D" stop-opacity=".7"/><stop offset="1" stop-color="#FFAF00" stop-opacity=".7"/></linearGradient><linearGradient id="prefix__paint1_linear_105_131" x1="73.916" y1="19.252" x2="45.157" y2="99.019" gradientUnits="userSpaceOnUse"><stop stop-color="#4967D5"/><stop offset=".523" stop-color="#DB2E7D"/><stop offset="1" stop-color="#FFAF00"/></linearGradient><linearGradient id="prefix__paint2_linear_105_131" x1="69.57" y1="43.532" x2="44.681" y2="72.251" gradientUnits="userSpaceOnUse"><stop offset=".173" stop-color="#4967D5"/><stop offset=".689" stop-color="#DB2E7D"/><stop offset="1" stop-color="#FFAF00"/></linearGradient><filter id="prefix__filter0_i_105_131" x="14.695" y="8.689" width="87.366" height="94.048" filterUnits="userSpaceOnUse" color-interpolation-filters="sRGB"><feFlood flood-opacity="0" result="BackgroundImageFix"/><feBlend in="SourceGraphic" in2="BackgroundImageFix" result="shape"/><feColorMatrix in="SourceAlpha" values="0 0 0 0 0 0 0 0 0 0 0 0 0 0 0 0 0 0 127 0" result="hardAlpha"/><feOffset dy="-8"/><feGaussianBlur stdDeviation="6"/><feComposite in2="hardAlpha" operator="arithmetic" k2="-1" k3="1"/><feColorMatrix values="0 0 0 0 1 0 0 0 0 0.686275 0 0 0 0 0 0 0 0 0.35 0"/><feBlend in2="shape" result="effect1_innerShadow_105_131"/></filter></defs></svg>
