<svg width="117" height="117" fill="none" xmlns="http://www.w3.org/2000/svg"><g filter="url(#prefix__filter0_i_111_237)"><path d="M35.734 23.465a13 13 0 0110.16-4.775l12.796.09 12.795.151a13 13 0 0110.068 4.966l7.907 10.06 7.86 10.099a13.002 13.002 0 012.395 10.967l-2.936 12.455-2.994 12.441a13 13 0 01-7.081 8.71L75.135 94.1l-11.594 5.416a13 13 0 01-11.225-.106l-11.49-5.633-11.463-5.689a13 13 0 01-6.915-8.841l-2.76-12.496-2.7-12.508a13 13 0 012.601-10.92l8.05-9.949 8.095-9.91z" fill="url(#prefix__paint0_linear_111_237)" fill-opacity=".2"/></g><path d="M58.701 17.78h-.004L45.9 17.69a14 14 0 00-10.94 5.142l-8.096 9.91-.003.004-8.05 9.948a14 14 0 00-2.8 11.76l2.7 12.508v.005l2.76 12.495a14 14 0 007.448 9.522l11.463 5.688.004.002 11.49 5.634a14.002 14.002 0 0012.088.114l11.594-5.416.005-.002 11.568-5.47a14 14 0 007.626-9.38l2.995-12.442v-.005l2.936-12.455a14 14 0 00-2.579-11.81l-7.86-10.099-.002-.004-7.908-10.06a14 14 0 00-10.842-5.348l-12.796-.151z" stroke="url(#prefix__paint1_linear_111_237)" stroke-width="2"/><path d="M55.554 62.825c-.868 4.544-1.926 8.9-5.063 11.175-.966-6.867 1.421-12.023 2.532-17.498-1.893-3.184.227-9.59 4.215-8.01 4.909 1.94-4.25 11.833 1.898 13.07 6.42 1.29 9.04-11.137 5.058-15.177-5.75-5.838-16.74-.137-15.387 8.22.328 2.042 2.438 2.661.843 5.48-3.681-.814-4.78-3.718-4.638-7.589.228-6.336 5.69-10.77 11.172-11.385 6.931-.777 13.437 2.546 14.336 9.065 1.012 7.36-3.128 15.333-10.541 14.76-2.01-.158-2.851-1.154-4.425-2.111z" fill="url(#prefix__paint2_linear_111_237)"/><defs><linearGradient id="prefix__paint0_linear_111_237" x1="39.671" y1="18.646" x2="76.963" y2="97.988" gradientUnits="userSpaceOnUse"><stop stop-color="#E90018" stop-opacity=".7"/><stop offset="1" stop-color="#62E3FF" stop-opacity=".24"/><stop offset="1" stop-color="#E9007E" stop-opacity=".7"/></linearGradient><linearGradient id="prefix__paint1_linear_111_237" x1="73.916" y1="19.252" x2="45.157" y2="99.019" gradientUnits="userSpaceOnUse"><stop stop-color="#E90018"/><stop offset="1" stop-color="#E90018"/></linearGradient><linearGradient id="prefix__paint2_linear_111_237" x1="68.793" y1="38.909" x2="38.598" y2="56.722" gradientUnits="userSpaceOnUse"><stop stop-color="#E90018"/><stop offset="1" stop-color="#E9007E"/></linearGradient><filter id="prefix__filter0_i_111_237" x="14.695" y="8.689" width="87.366" height="94.048" filterUnits="userSpaceOnUse" color-interpolation-filters="sRGB"><feFlood flood-opacity="0" result="BackgroundImageFix"/><feBlend in="SourceGraphic" in2="BackgroundImageFix" result="shape"/><feColorMatrix in="SourceAlpha" values="0 0 0 0 0 0 0 0 0 0 0 0 0 0 0 0 0 0 127 0" result="hardAlpha"/><feOffset dy="-8"/><feGaussianBlur stdDeviation="6"/><feComposite in2="hardAlpha" operator="arithmetic" k2="-1" k3="1"/><feColorMatrix values="0 0 0 0 0.913725 0 0 0 0 0 0 0 0 0 0.494118 0 0 0 0.35 0"/><feBlend in2="shape" result="effect1_innerShadow_111_237"/></filter></defs></svg>
