<svg xmlns="http://www.w3.org/2000/svg" width="512" height="512" viewBox="0 0 512.001 512.001"><path d="M511.969 9.4c-.184-2.437-1.174-4.868-2.799-6.501-2.717-2.729-7.252-3.68-10.847-2.211L6.236 200.708a10 10 0 00-1.24 17.922l87.408 50.545 74.552 161.02c3.029 6.542 12.362 7.672 16.872 2.054.025-.031.054-.058.078-.089l59.336-75.761 93.812 54.249c5.005 2.894 11.954.785 14.267-4.877L511.349 13.734c.54-1.324.733-2.83.62-4.334zM32.698 211.543L402.331 61.298 101.917 251.57l-69.219-40.027zm150.94 95.729c-1.501 1.468-2.647 3.724-2.925 5.854l-10.118 77.322-56.816-122.714 313.278-198.42-243.419 237.958zm7.187 83.612l8.055-60.138 26.873 15.54-34.928 44.598zm146.311-3.294l-130.091-75.227L342.22 180.22 474.613 50.799 337.136 387.59zM122.591 389.419c-1.929-1.929-4.5-2.892-7.071-2.892-2.572 0-5.144.965-7.071 2.892l-76.384 76.377c-3.788 3.787-3.899 10.242 0 14.141 3.86 3.86 10.292 3.851 14.143 0l76.383-76.377c3.901-3.9 3.901-10.24 0-14.141zM10.852 491.148c-5.368 0-10.002 4.669-10.002 10.001 0 5.35 4.497 10 10.001 10.001 5.442 0 10.002-4.57 10.002-10 .001-5.283-4.723-10.001-10.001-10.002z" fill="#FFF" data-original="#FFF" xmlns="http://www.w3.org/2000/svg"/><path d="M261.115 416.922c-1.928-1.929-4.499-2.891-7.07-2.891-2.573 0-5.145.965-7.072 2.891l-49.509 49.505c-3.9 3.901-3.9 10.24-.001 14.141 3.789 3.789 10.374 3.771 14.143 0l49.509-49.505c3.901-3.9 3.901-10.24 0-14.141zM76.083 298.91c-3.817-3.817-10.346-3.797-14.143 0l-28.295 28.283c-3.861 3.86-3.857 10.293 0 14.15 1.895 1.895 4.484 2.834 7.072 2.832 2.596-.002 5.191-.95 7.082-2.831l28.284-28.293c3.901-3.9 3.901-10.24 0-14.141z" fill="#FFF" data-original="#FFF" xmlns="http://www.w3.org/2000/svg"/><circle cx="176.03" cy="502.001" r="10" fill="#FFF" data-original="#FFF" xmlns="http://www.w3.org/2000/svg"/><circle cx="12" cy="362.991" r="10" fill="#FFF" data-original="#FFF" xmlns="http://www.w3.org/2000/svg"/></svg>
