<svg width="117" height="117" fill="none" xmlns="http://www.w3.org/2000/svg"><g filter="url(#prefix__filter0_i_105_156)"><g filter="url(#prefix__filter1_i_105_156)"><path d="M35.734 23.465a13 13 0 0110.16-4.775l12.796.09 12.795.151a13 13 0 0110.068 4.966l7.907 10.06 7.86 10.099a13.001 13.001 0 012.395 10.967l-2.936 12.455-2.994 12.441a13 13 0 01-7.081 8.71L75.135 94.1l-11.594 5.416a13 13 0 01-11.225-.106l-11.49-5.633-11.463-5.689a13 13 0 01-6.915-8.841l-2.76-12.496-2.7-12.508a13 13 0 012.601-10.92l8.05-9.949 8.095-9.91z" fill="url(#prefix__paint0_linear_105_156)" fill-opacity=".2"/></g><path d="M58.701 17.78h-.004L45.9 17.69a14 14 0 00-10.94 5.142l-8.096 9.91-.003.004-8.05 9.948a14 14 0 00-2.8 11.76l2.7 12.508v.005l2.76 12.495a14 14 0 007.448 9.522l11.463 5.688.004.002 11.49 5.634a14.002 14.002 0 0012.088.114l11.594-5.416.005-.002 11.568-5.47a14 14 0 007.626-9.38l2.995-12.442v-.005l2.936-12.455a14 14 0 00-2.579-11.81l-7.86-10.099-.002-.004-7.908-10.06a14 14 0 00-10.842-5.348l-12.796-.151z" stroke="url(#prefix__paint1_linear_105_156)" stroke-width="2"/></g><path d="M74 49.203c-1.14.54-2.365.907-3.652 1.072 1.328-.852 2.322-2.192 2.796-3.771a12.195 12.195 0 01-4.038 1.653c-.958-1.096-2.227-1.822-3.61-2.066a5.995 5.995 0 00-4.037.716c-1.236.709-2.218 1.834-2.795 3.203a7.265 7.265 0 00-.396 4.364 17.13 17.13 0 01-7.261-2.068 18.357 18.357 0 01-5.849-5.053 7.187 7.187 0 00-.86 3.426c0 1.121.258 2.226.751 3.216a6.674 6.674 0 002.078 2.456 6.025 6.025 0 01-2.88-.853v.088c0 1.574.507 3.099 1.437 4.317s2.225 2.053 3.665 2.365a5.993 5.993 0 01-2.873.117 6.823 6.823 0 002.263 3.386 6.093 6.093 0 003.679 1.344c-2.253 1.895-5.036 2.923-7.9 2.919-.507 0-1.014-.032-1.518-.096 2.907 2.003 6.292 3.066 9.748 3.062 11.7 0 18.097-10.383 18.097-19.387 0-.293-.007-.588-.02-.88a13.481 13.481 0 003.172-3.526l.003-.004z" fill="url(#prefix__paint2_linear_105_156)"/><defs><linearGradient id="prefix__paint0_linear_105_156" x1="39.671" y1="18.646" x2="76.963" y2="97.988" gradientUnits="userSpaceOnUse"><stop stop-color="#1B77F2" stop-opacity=".7"/><stop offset="1" stop-color="#62E3FF" stop-opacity=".24"/><stop offset="1" stop-color="#62E3FF" stop-opacity=".73"/></linearGradient><linearGradient id="prefix__paint1_linear_105_156" x1="73.916" y1="19.252" x2="45.157" y2="99.019" gradientUnits="userSpaceOnUse"><stop stop-color="#1B77F2"/><stop offset="1" stop-color="#62E3FF"/></linearGradient><linearGradient id="prefix__paint2_linear_105_156" x1="44.512" y1="48.045" x2="63.425" y2="67.423" gradientUnits="userSpaceOnUse"><stop stop-color="#009EFF"/><stop offset="1" stop-color="#00FAFA"/></linearGradient><filter id="prefix__filter0_i_105_156" x="14.695" y="11.689" width="87.366" height="91.048" filterUnits="userSpaceOnUse" color-interpolation-filters="sRGB"><feFlood flood-opacity="0" result="BackgroundImageFix"/><feBlend in="SourceGraphic" in2="BackgroundImageFix" result="shape"/><feColorMatrix in="SourceAlpha" values="0 0 0 0 0 0 0 0 0 0 0 0 0 0 0 0 0 0 127 0" result="hardAlpha"/><feOffset dy="-5"/><feGaussianBlur stdDeviation="6"/><feComposite in2="hardAlpha" operator="arithmetic" k2="-1" k3="1"/><feColorMatrix values="0 0 0 0 0.0414556 0 0 0 0 0.509132 0 0 0 0 0.796115 0 0 0 0.35 0"/><feBlend in2="shape" result="effect1_innerShadow_105_156"/></filter><filter id="prefix__filter1_i_105_156" x="14.695" y="8.689" width="87.366" height="94.048" filterUnits="userSpaceOnUse" color-interpolation-filters="sRGB"><feFlood flood-opacity="0" result="BackgroundImageFix"/><feBlend in="SourceGraphic" in2="BackgroundImageFix" result="shape"/><feColorMatrix in="SourceAlpha" values="0 0 0 0 0 0 0 0 0 0 0 0 0 0 0 0 0 0 127 0" result="hardAlpha"/><feOffset dy="-8"/><feGaussianBlur stdDeviation="6"/><feComposite in2="hardAlpha" operator="arithmetic" k2="-1" k3="1"/><feColorMatrix values="0 0 0 0 0.0414556 0 0 0 0 0.509132 0 0 0 0 0.796115 0 0 0 0.35 0"/><feBlend in2="shape" result="effect1_innerShadow_105_156"/></filter></defs></svg>
